PathFileType	4	(X/Y/Z)	D:\TRACE\spot_10-12-23\spot_arm_body_motion_1_7-platform.trc
DataRate	CameraRate	NumFrames	NumMarkers	Units	OrigDataRate	OrigDataStartFrame	OrigNumFrames
100.00	100.00	      54	5	mm	100.00	1751	      7000
Frame#	Time	Left_Front			Right_Front			Left_Aft			Right_Aft			Post			
		X1	Y1	Z1	X2	Y2	Z2	X3	Y3	Z3	X4	Y4	Z4	X5	Y5	Z5	

1751	17.500	-799.09387	38.41487	-644.68683	768.38452	36.02543	-620.43323	-730.29376	-6.34719	492.95453	676.51019	-11.81017	594.70398	-11.18146	778.31976	-926.18896	
1752	17.510	-800.09375	38.52754	-644.97418	767.43256	35.91005	-620.51007	-731.38202	-6.29493	492.79834	675.54089	-11.58806	594.75677	-12.50889	778.05597	-926.73431	
1753	17.520	-801.03607	38.32146	-645.01318	766.35980	35.47316	-620.64215	-732.40869	-5.95355	492.76202	674.63800	-11.35960	594.66492	-13.44646	777.85529	-926.88849	
1754	17.530	-802.01715	37.88051	-645.02386	765.45483	35.17715	-620.71265	-733.17773	-5.70180	492.70251	673.77039	-11.16438	594.68298	-14.23180	777.60028	-927.06836	
1755	17.540	-802.66376	37.50660	-645.28912	764.57001	35.11266	-620.76788	-734.34412	-5.59012	492.54120	672.79437	-10.99924	594.62860	-15.32257	777.19757	-927.45758	
1756	17.550	-803.89954	37.63167	-645.31451	763.67957	34.94419	-620.77509	-735.19476	-5.51794	492.60236	671.64966	-10.95883	594.52332	-16.09867	776.88080	-927.77155	
1757	17.560	-804.90076	37.44828	-645.29529	762.66907	34.61354	-620.79388	-736.01813	-5.47744	492.59644	670.68817	-10.98477	594.14551	-34.10387	710.10840	-942.39752	
1758	17.570	-805.61578	37.30571	-645.33093	761.79156	34.34279	-620.78613	-737.04437	-5.19586	492.53897	670.01288	-10.74348	594.40564	-17.73662	776.23816	-928.09784	
1759	17.580	-806.52032	37.06429	-645.52502	760.98071	34.22990	-620.98590	-737.72736	-5.03078	492.40894	668.97705	-10.52470	594.31134	-18.91327	776.05896	-928.50934	
1760	17.590	-807.57922	36.87466	-645.67126	759.81732	34.00792	-621.13135	-738.79889	-4.93922	492.26624	668.09601	-10.45490	594.07501	-19.74323	775.80316	-928.69568	
1761	17.600	-808.30084	36.52266	-645.59961	759.10114	33.94377	-621.13800	-739.71326	-4.77858	492.30548	667.22845	-10.33448	594.03027	-20.56599	775.47620	-928.96698	
1762	17.610	-809.31219	36.46025	-645.59570	758.20404	33.46662	-621.22583	-740.49835	-4.64144	492.20139	666.22443	-10.23758	593.99213	-21.48386	775.33258	-929.11719	
1763	17.620	-810.11517	36.23263	-645.60706	757.26044	33.33588	-621.22925	-741.48004	-4.56669	492.19720	665.43439	-9.90627	594.10681	-39.03030	709.32733	-943.67401	
1764	17.630	-811.08862	35.99437	-645.74799	756.45288	33.26339	-621.29840	-742.33459	-4.40914	492.22037	664.68488	-9.64848	594.15057	-39.04377	708.82031	-944.08240	
1765	17.640	-811.91730	35.65552	-645.83728	755.67816	33.14386	-621.32458	-743.12427	-4.33504	492.12894	663.84015	-9.48034	594.04065	-24.25360	774.15405	-930.03778	
1766	17.650	-812.66333	35.31337	-645.85309	754.63879	32.93431	-621.53229	-744.04010	-4.10413	492.10367	662.90302	-9.35483	593.95685	-25.04183	774.03845	-930.39014	
1767	17.660	-813.50330	35.06803	-645.81531	753.82947	32.41909	-621.61395	-744.77991	-3.81211	492.02496	661.89813	-8.98902	594.15198	-25.90087	773.77710	-930.85034	
1768	17.670	-814.42413	34.89718	-646.02313	753.04919	32.26076	-621.66583	-745.63739	-3.61868	491.95209	661.11859	-8.79981	594.10779	-26.55008	773.15509	-931.08319	
1769	17.680	-815.23944	34.78206	-646.14508	752.18665	32.06184	-621.63684	-746.65106	-3.51187	491.91568	660.35327	-8.43669	593.99878	-27.49090	772.86926	-931.60486	
1770	17.690	-816.02118	34.54483	-646.16040	751.49939	31.83841	-621.69653	-747.23438	-3.35948	491.80652	659.51398	-8.21971	593.88763	-44.66409	706.88336	-946.22186	
1771	17.700	-816.78119	34.15455	-646.20001	750.72968	31.53438	-621.79034	-747.97839	-3.15959	491.73740	658.72327	-8.24742	593.69336	-28.85867	771.85565	-932.38025	
1772	17.710	-817.60669	33.87727	-646.39166	749.82922	31.27620	-621.89459	-748.91742	-2.98236	491.64542	657.95490	-7.94773	593.69232	-29.79335	771.64636	-932.94714	
1773	17.720	-818.38397	33.85051	-646.60352	749.08533	31.09137	-621.95374	-749.55823	-2.79559	491.61877	657.17407	-7.65148	593.69403	-30.45903	771.44385	-933.15155	
1774	17.730	-819.21594	33.68387	-646.57721	748.10815	30.53805	-622.13586	-750.31226	-2.58547	491.51773	656.46204	-7.67398	593.57599	-31.26785	771.12311	-933.52649	
1775	17.740	-819.97211	33.42057	-646.55469	747.63623	30.59441	-622.18756	-751.32758	-2.45421	491.46323	655.70453	-7.25098	593.62756	-32.02337	770.77325	-933.93890	
1776	17.750	-820.63812	33.12394	-646.63544	746.76337	30.25976	-622.27704	-751.93628	-2.39304	491.53302	654.96313	-6.96246	593.58795	-32.99606	770.40411	-934.38629	
1777	17.760	-821.34290	32.77453	-646.83960	746.09589	30.09135	-622.30603	-752.50183	-2.17868	491.55215	654.39288	-6.83042	593.58795	-33.69461	769.84528	-934.64960	
1778	17.770	-822.11011	32.55559	-647.02637	745.46411	29.83248	-622.35590	-753.29303	-2.00819	491.40567	653.53693	-6.59398	593.52826	-34.19984	769.41425	-934.85028	
1779	17.780	-822.75092	32.17632	-646.97931	744.81317	29.51670	-622.38580	-754.09369	-1.80439	491.23196	652.92633	-6.23099	593.45374	-34.86256	769.22266	-935.19995	
1780	17.790	-823.37048	31.87105	-646.96490	743.84204	29.33880	-622.51758	-754.63507	-1.51708	491.07172	652.34778	-5.96459	593.37262	-35.73479	768.93500	-935.57330	
1781	17.800	-823.98743	31.61179	-646.98022	743.28094	28.87191	-622.79633	-755.36902	-1.30971	491.00757	651.67694	-5.82802	593.21869	-36.21506	768.30914	-935.83276	
1782	17.810	-824.44739	30.99792	-647.19037	742.75214	28.68571	-622.84741	-755.99261	-1.15745	490.96957	650.94727	-5.73509	593.15887	-36.76886	767.74902	-936.35663	
1783	17.820	-825.29120	30.84472	-647.34381	742.14526	28.31250	-622.84296	-756.57648	-1.06652	490.90213	650.04590	-5.52835	593.04810	-37.42197	767.45648	-936.78467	
1784	17.830	-825.82800	30.76919	-647.38409	741.51862	27.87750	-622.88611	-757.06860	-0.78507	490.91556	649.58655	-5.28034	593.00122	-38.07026	767.17310	-937.15820	
1785	17.840	-826.42944	30.37376	-647.57709	740.86560	27.66171	-622.91248	-757.73511	-0.45565	490.82333	649.11121	-4.94001	592.90466	-38.62983	766.54309	-937.68903	
1786	17.850	-826.94879	30.05349	-647.59949	740.36987	27.43322	-622.95856	-758.40173	-0.22188	490.72650	648.47406	-4.68854	592.78131	-39.21801	766.03107	-938.32587	
1787	17.860	-827.47589	29.84452	-647.64825	739.79358	26.94160	-623.11127	-758.85156	-0.01887	490.64435	647.88635	-4.44285	592.68182	-39.82304	765.71008	-938.80103	
1788	17.870	-827.95966	29.48991	-647.70703	739.28949	26.62336	-623.24243	-759.39203	0.09870	490.61804	647.29999	-4.22508	592.59106	-40.41119	765.35199	-939.32166	
1789	17.880	-828.42114	29.07929	-647.90460	738.80347	26.43530	-623.42285	-759.93286	0.14008	490.74643	646.87750	-3.98823	592.58191	-40.54507	764.68524	-939.80408	
1790	17.890	-828.95428	28.67443	-648.06213	738.30737	26.12156	-623.49139	-760.41638	0.54572	490.52838	646.42346	-3.62165	592.52722	-22.28523	695.94653	-952.60400	
1791	17.900	-829.43683	28.40732	-648.06708	737.73212	25.74466	-623.62305	-760.80554	0.90162	490.44193	646.14319	-3.35003	592.50647	-41.68269	763.80096	-940.63318	
1792	17.910	-829.84607	28.06234	-648.05841	737.25562	25.40426	-623.72491	-761.22321	1.21932	490.44400	645.57129	-3.13104	592.40625	-42.17368	763.32648	-941.15143	
1793	17.920	-830.26208	27.58130	-648.23450	736.91547	25.12894	-623.75897	-761.66559	1.44564	490.39200	645.11340	-2.95689	592.31854	-42.47256	762.78345	-941.50531	
1794	17.930	-830.58661	27.08369	-648.28278	736.58813	24.80005	-623.83575	-762.14697	1.62944	490.22635	644.64044	-2.68821	592.25385	-42.82751	762.30212	-941.76495	
1795	17.940	-830.89313	26.82285	-648.40918	736.27832	24.43317	-623.91400	-762.41675	1.83002	490.11722	644.29559	-2.24989	592.19696	-43.12404	761.69031	-942.15491	
1796	17.950	-831.18195	26.54455	-648.46838	735.93890	24.01522	-623.99506	-762.82526	2.06197	490.00674	644.07959	-1.88390	592.05786	-43.59363	761.29675	-942.68091	
1797	17.960	-831.46753	26.25151	-648.53180	735.55023	23.53995	-624.09210	-763.11115	2.34227	489.88895	643.86731	-1.61441	591.95789	-43.89585	760.84143	-943.12488	
1798	17.970	-831.85364	25.87034	-648.62860	735.39209	23.30737	-624.16058	-763.33130	2.58046	489.74167	643.74109	-1.43120	591.91479	-44.10963	760.26837	-943.50800	
1799	17.980	-832.06152	25.50028	-648.75299	735.23718	23.01585	-624.24603	-763.46210	2.81492	489.60748	643.44397	-1.10301	591.84589	-44.28913	759.53448	-944.01270	
1800	17.990	-832.32959	25.23257	-648.90033	735.08441	22.64068	-624.39453	-763.59192	3.03803	489.55093	643.18872	-0.63031	591.71765	-44.32300	759.02332	-944.78955	
1801	18.000	-832.55786	24.99018	-649.06439	734.91870	22.23067	-624.49054	-763.75555	3.35988	489.47852	643.04584	-0.36139	591.57379	-44.73078	758.60760	-945.42834	
1802	18.010	-832.64575	24.58157	-649.25000	734.64746	21.71503	-624.60809	-764.00641	3.64660	489.38257	642.87775	-0.02693	591.28259	-44.80346	757.85565	-946.04382	
1803	18.020	-832.75012	24.04800	-649.34595	734.45728	21.32118	-624.68854	-764.21747	3.94105	489.24710	642.52423	0.04970	591.36908	-45.01041	757.32281	-946.81622	
1804	18.030	-832.90967	23.48831	-649.35431	734.35339	20.89703	-624.77527	-764.33197	4.26678	489.05032	642.42694	0.46320	591.23242	-45.23318	756.85748	-947.40222	
